<?xml version="1.0" encoding="utf-8"?>
<!-- Generator: Adobe Illustrator 16.0.0, SVG Export Plug-In . SVG Version: 6.00 Build 0)  -->
<!DOCTYPE svg PUBLIC "-//W3C//DTD SVG 1.1//EN" "http://www.w3.org/Graphics/SVG/1.1/DTD/svg11.dtd">
<svg version="1.1" id="Layer_1" xmlns="http://www.w3.org/2000/svg" xmlns:xlink="http://www.w3.org/1999/xlink" x="0px" y="0px"
	 width="100px" height="100px" viewBox="9.001 -26.502 100 100" enable-background="new 9.001 -26.502 100 100"
	 xml:space="preserve">
<path fill="#FFFFFF" d="M109.001,68.499c0,2.762-2.238,5-5,5h-90c-2.761,0-5-2.238-5-5v-90c0-2.761,2.239-5,5-5h90
	c2.762,0,5,2.239,5,5V68.499z"/>
<g>
	<path fill="#252F3E" d="M42.06,17.147c0,0.955,0.103,1.729,0.283,2.298c0.207,0.568,0.466,1.188,0.827,1.859
		c0.129,0.206,0.182,0.413,0.182,0.594c0,0.258-0.155,0.517-0.491,0.774l-1.627,1.084c-0.232,0.155-0.465,0.232-0.671,0.232
		c-0.258,0-0.518-0.129-0.775-0.362c-0.361-0.387-0.671-0.8-0.93-1.213c-0.258-0.438-0.517-0.93-0.8-1.523
		c-2.015,2.376-4.545,3.563-7.593,3.563c-2.169,0-3.898-0.619-5.165-1.859c-1.265-1.239-1.91-2.892-1.91-4.958
		c0-2.194,0.773-3.977,2.35-5.318c1.576-1.343,3.667-2.016,6.327-2.016c0.878,0,1.782,0.078,2.737,0.207
		c0.955,0.13,1.937,0.337,2.97,0.568V9.193c0-1.962-0.413-3.331-1.214-4.132c-0.826-0.802-2.222-1.188-4.209-1.188
		c-0.904,0-1.833,0.104-2.789,0.336c-0.956,0.232-1.886,0.517-2.789,0.878c-0.413,0.182-0.724,0.284-0.904,0.335
		C25.687,5.475,25.558,5.5,25.455,5.5c-0.362,0-0.542-0.258-0.542-0.8V3.435c0-0.413,0.052-0.724,0.181-0.904
		c0.13-0.181,0.362-0.361,0.724-0.542c0.904-0.465,1.988-0.852,3.254-1.162c1.265-0.335,2.608-0.49,4.028-0.49
		c3.072,0,5.319,0.697,6.766,2.092c1.42,1.395,2.144,3.512,2.144,6.353v8.367L42.06,17.147L42.06,17.147z M31.575,21.073
		c0.852,0,1.73-0.155,2.66-0.465c0.93-0.311,1.756-0.878,2.454-1.653c0.413-0.491,0.723-1.033,0.878-1.653
		c0.155-0.619,0.258-1.368,0.258-2.246V13.97c-0.749-0.182-1.549-0.336-2.376-0.439c-0.826-0.103-1.627-0.155-2.427-0.155
		c-1.73,0-2.996,0.336-3.849,1.033c-0.852,0.697-1.265,1.679-1.265,2.97c0,1.213,0.31,2.117,0.956,2.737
		C29.483,20.763,30.387,21.073,31.575,21.073z M52.312,23.861c-0.465,0-0.775-0.077-0.981-0.258
		c-0.207-0.155-0.387-0.518-0.542-1.007l-6.07-19.963c-0.154-0.517-0.231-0.853-0.231-1.032c0-0.413,0.207-0.646,0.62-0.646h2.531
		c0.49,0,0.826,0.078,1.007,0.258c0.207,0.155,0.36,0.518,0.517,1.008L53.5,19.316L57.528,2.22c0.129-0.517,0.284-0.853,0.491-1.008
		c0.207-0.154,0.567-0.258,1.032-0.258h2.065c0.491,0,0.826,0.078,1.033,0.258c0.207,0.155,0.388,0.518,0.49,1.008l4.081,17.302
		L71.189,2.22c0.153-0.517,0.336-0.853,0.516-1.008c0.207-0.154,0.543-0.258,1.008-0.258h2.401c0.413,0,0.646,0.207,0.646,0.646
		c0,0.129-0.024,0.258-0.052,0.413c-0.024,0.154-0.077,0.361-0.181,0.646l-6.224,19.962c-0.155,0.518-0.336,0.853-0.542,1.007
		c-0.207,0.155-0.544,0.259-0.981,0.259h-2.22c-0.491,0-0.827-0.077-1.033-0.259c-0.206-0.181-0.388-0.516-0.491-1.032L60.033,5.939
		L56.056,22.57c-0.13,0.517-0.284,0.852-0.491,1.033c-0.207,0.181-0.568,0.258-1.033,0.258H52.312z M85.496,24.559
		c-1.344,0-2.686-0.154-3.978-0.466c-1.291-0.31-2.298-0.646-2.971-1.032c-0.413-0.232-0.696-0.491-0.801-0.724
		c-0.104-0.231-0.154-0.49-0.154-0.723v-1.317c0-0.542,0.206-0.801,0.595-0.801c0.153,0,0.31,0.026,0.465,0.078
		c0.154,0.052,0.387,0.155,0.646,0.258c0.878,0.388,1.833,0.697,2.842,0.904c1.032,0.207,2.04,0.31,3.071,0.31
		c1.627,0,2.894-0.283,3.771-0.853c0.877-0.568,1.342-1.396,1.342-2.453c0-0.723-0.232-1.317-0.697-1.808
		c-0.465-0.491-1.342-0.931-2.606-1.344l-3.744-1.161c-1.886-0.595-3.28-1.473-4.133-2.635c-0.853-1.136-1.291-2.4-1.291-3.745
		c0-1.084,0.231-2.04,0.696-2.865c0.466-0.827,1.084-1.55,1.859-2.118c0.775-0.594,1.652-1.033,2.686-1.343
		c1.034-0.311,2.117-0.439,3.255-0.439c0.567,0,1.161,0.026,1.729,0.103c0.594,0.078,1.137,0.182,1.679,0.284
		c0.518,0.129,1.008,0.259,1.473,0.413c0.465,0.155,0.826,0.311,1.084,0.465c0.361,0.207,0.621,0.414,0.774,0.646
		c0.154,0.207,0.232,0.49,0.232,0.852v1.213c0,0.542-0.207,0.827-0.594,0.827c-0.207,0-0.543-0.104-0.981-0.31
		c-1.472-0.671-3.125-1.007-4.958-1.007c-1.473,0-2.635,0.231-3.436,0.723s-1.213,1.24-1.213,2.299c0,0.724,0.258,1.343,0.773,1.833
		c0.518,0.49,1.472,0.981,2.841,1.42l3.667,1.162c1.859,0.594,3.202,1.42,4.003,2.479c0.802,1.059,1.188,2.271,1.188,3.614
		c0,1.11-0.232,2.118-0.672,2.996c-0.465,0.878-1.084,1.653-1.885,2.272c-0.802,0.646-1.757,1.11-2.866,1.446
		C88.026,24.378,86.813,24.559,85.496,24.559z"/>
	<g>
		<path fill="#FF9900" d="M90.377,37.109c-8.496,6.274-20.841,9.605-31.455,9.605c-14.875,0-28.276-5.501-38.399-14.642
			c-0.8-0.724-0.078-1.705,0.878-1.137c10.95,6.353,24.456,10.199,38.426,10.199c9.426,0,19.781-1.962,29.312-5.99
			C90.557,34.501,91.771,36.076,90.377,37.109z"/>
		<path fill="#FF9900" d="M93.914,33.08c-1.084-1.394-7.179-0.671-9.94-0.335c-0.827,0.104-0.956-0.62-0.207-1.162
			c4.854-3.409,12.834-2.428,13.764-1.291c0.93,1.162-0.258,9.143-4.803,12.964c-0.697,0.595-1.369,0.283-1.06-0.49
			C92.701,40.208,94.999,34.449,93.914,33.08z"/>
	</g>
</g>
</svg>
