<?xml version="1.0" encoding="utf-8"?>
<!-- Generator: Adobe Illustrator 16.0.0, SVG Export Plug-In . SVG Version: 6.00 Build 0)  -->
<!DOCTYPE svg PUBLIC "-//W3C//DTD SVG 1.1//EN" "http://www.w3.org/Graphics/SVG/1.1/DTD/svg11.dtd">
<svg version="1.1" id="Layer_1" xmlns="http://www.w3.org/2000/svg" xmlns:xlink="http://www.w3.org/1999/xlink" x="0px" y="0px"
	 width="118px" height="118px" viewBox="0 -35.5 118 118" enable-background="new 0 -35.5 118 118" xml:space="preserve">
<path fill="#1D63ED" d="M108.031,16.37c-2.485-1.674-9.015-2.387-13.761-1.109c-0.256-4.729-2.694-8.713-7.154-12.19l-1.654-1.107
	l-1.098,1.662c-2.163,3.284-3.075,7.659-2.754,11.635c0.256,2.45,1.108,5.204,2.754,7.201c-6.178,3.585-11.873,2.771-37.095,2.771
	H8.329c-0.114,5.694,0.803,16.649,7.769,25.565c0.77,0.988,1.614,1.941,2.528,2.857c5.664,5.673,14.222,9.834,27.019,9.844
	c19.525,0.017,36.248-10.537,46.424-36.048c3.346,0.055,12.184,0.601,16.51-7.758c0.107-0.141,1.101-2.218,1.101-2.218l-1.648-1.109
	L108.031,16.37z M33.742,11.161h-10.95v10.95h10.95V11.161z M47.889,11.161H36.938v10.95h10.951V11.161z M62.037,11.161H51.085
	v10.95h10.952V11.161z M76.181,11.161H65.231v10.95h10.949V11.161z M19.596,11.161H8.645v10.95h10.951V11.161z M33.742-2.668h-10.95
	v10.95h10.95V-2.668z M47.889-2.668H36.938v10.95h10.951V-2.668z M62.037-2.668H51.085v10.95h10.952V-2.668z M62.037-16.5H51.085
	v10.95h10.952V-16.5z"/>
</svg>
