<?xml version="1.0" encoding="utf-8"?>
<!-- Generator: Adobe Illustrator 16.0.0, SVG Export Plug-In . SVG Version: 6.00 Build 0)  -->
<!DOCTYPE svg PUBLIC "-//W3C//DTD SVG 1.1//EN" "http://www.w3.org/Graphics/SVG/1.1/DTD/svg11.dtd">
<svg version="1.1" id="Typo" xmlns="http://www.w3.org/2000/svg" xmlns:xlink="http://www.w3.org/1999/xlink" x="0px" y="0px"
	 width="181.417px" height="181.418px" viewBox="0 0 181.417 181.418" enable-background="new 0 0 181.417 181.418"
	 xml:space="preserve">
<rect fill="#FFFFFF" width="181.417" height="181.418"/>
<g>
	<path d="M124.502,59.348l-0.073-0.112c-1.236-2.082-3.208-3.47-5.389-4.074c-2.251-0.592-4.677-0.343-6.833,0.89h0.015
		c-2.153,1.223-3.595,3.222-4.196,5.465c-0.593,2.222-0.333,4.674,0.904,6.81l0.042,0.059c1.24,2.11,3.212,3.527,5.415,4.103
		c2.214,0.618,4.681,0.357,6.808-0.882l0.114-0.053c2.094-1.25,3.487-3.227,4.07-5.391
		C125.972,63.932,125.734,61.487,124.502,59.348L124.502,59.348z M74.184,66.219L74.184,66.219
		c5.223,0.859,9.912,3.359,13.496,6.971h0.027c0.569,0.576,1.125,1.194,1.638,1.824l8.959-5.187
		c-1.206-3.636-1.259-7.443-0.292-11.01c1.278-4.774,4.375-9.051,9.018-11.739l0.153-0.092c4.592-2.603,9.813-3.139,14.527-1.863
		c4.775,1.28,9.079,4.389,11.761,9.029v0.007c2.665,4.615,3.207,9.907,1.934,14.669c-1.269,4.777-4.379,9.081-9.018,11.748
		l-1.223,0.727h-0.124c-4.293,2.044-9.01,2.359-13.343,1.221c-3.562-0.947-6.824-2.93-9.379-5.749l-8.946,5.165
		c1.029,2.72,1.598,5.655,1.598,8.75c0,3.085-0.568,6.057-1.598,8.797l8.946,5.146c2.556-2.86,5.818-4.801,9.379-5.747
		c4.774-1.307,10.064-0.752,14.69,1.945l0.296,0.137v0.021c4.467,2.702,7.467,6.887,8.722,11.609
		c1.273,4.732,0.731,10.025-1.934,14.648l-0.164,0.326l0,0l-0.019-0.028c-2.679,4.453-6.902,7.47-11.563,8.75
		c-4.782,1.26-10.075,0.721-14.695-1.934v-0.037c-4.643-2.689-7.74-6.975-9.018-11.742c-0.968-3.558-0.914-7.361,0.292-11.001
		l-8.959-5.169c-0.512,0.632-1.069,1.221-1.638,1.797l-0.027,0.028c-3.584,3.595-8.273,6.092-13.496,6.924v10.354
		c3.723,0.778,7.05,2.637,9.662,5.25l0,0l0.013,0.027c3.5,3.48,5.667,8.333,5.667,13.667c0,5.315-2.167,10.141-5.667,13.64
		l-0.013,0.054l0,0c-3.523,3.501-8.356,5.67-13.69,5.67c-5.305,0-10.153-2.169-13.667-5.67h-0.014v-0.054
		c-3.504-3.499-5.674-8.324-5.674-13.64c0-5.333,2.17-10.186,5.674-13.667v-0.027h0.014c2.607-2.612,5.945-4.472,9.653-5.25v-10.354
		c-5.222-0.832-9.904-3.329-13.482-6.924l-0.036-0.028c-4.468-4.49-7.27-10.667-7.27-17.519c0-6.835,2.802-13.007,7.27-17.5h0.036
		c3.578-3.612,8.26-6.112,13.482-6.971V55.911c-3.708-0.806-7.046-2.665-9.653-5.258h-0.014v-0.028
		c-3.504-3.518-5.674-8.332-5.674-13.666c0-5.306,2.17-10.165,5.674-13.665l0,0l0.014-0.02c3.514-3.51,8.361-5.679,13.667-5.679
		c5.333,0,10.167,2.169,13.69,5.679v0.02h0.013c3.5,3.5,5.667,8.359,5.667,13.665c0,5.333-2.167,10.147-5.667,13.666l-0.013,0.028
		c-2.612,2.594-5.939,4.453-9.662,5.258V66.219L74.184,66.219z M79.359,81.515L79.359,81.515c-2.356-2.352-5.606-3.825-9.203-3.825
		c-3.591,0-6.834,1.473-9.186,3.825c-2.341,2.34-3.786,5.583-3.786,9.175c0,3.602,1.445,6.852,3.786,9.222
		c2.352,2.335,5.595,3.797,9.186,3.797c3.597,0,6.847-1.462,9.203-3.797c2.348-2.371,3.793-5.62,3.793-9.222
		C83.152,87.098,81.707,83.855,79.359,81.515L79.359,81.515z M119.041,126.246L119.041,126.246c2.222-0.584,4.235-2.011,5.462-4.165
		l0.168-0.315l0,0c1.091-2.049,1.291-4.411,0.708-6.501c-0.588-2.239-2.031-4.222-4.184-5.46l-0.126-0.086
		c-2.097-1.145-4.487-1.398-6.682-0.807c-2.23,0.557-4.235,2.049-5.457,4.185c-1.237,2.125-1.497,4.565-0.904,6.817
		c0.612,2.211,2.043,4.212,4.181,5.462h0.015C114.364,126.606,116.79,126.832,119.041,126.246L119.041,126.246z M70.156,153.432
		L70.156,153.432c2.5,0,4.745-1.02,6.361-2.609l0.019-0.048c1.62-1.595,2.606-3.844,2.606-6.315c0-2.5-0.986-4.741-2.606-6.358
		h-0.019c-1.617-1.643-3.861-2.634-6.361-2.634c-2.496,0-4.722,0.991-6.32,2.634h-0.042c-1.61,1.617-2.61,3.858-2.61,6.358
		c0,2.472,1,4.721,2.61,6.315l0.042,0.048C65.434,152.412,67.66,153.432,70.156,153.432L70.156,153.432z M76.517,30.605
		L76.517,30.605c-1.617-1.619-3.861-2.62-6.361-2.62c-2.496,0-4.722,1.001-6.32,2.62h-0.042c-1.61,1.612-2.61,3.863-2.61,6.354
		c0,2.5,1,4.732,2.61,6.334l0.042,0.035c1.598,1.612,3.824,2.602,6.32,2.602c2.5,0,4.745-0.989,6.361-2.602l0.019-0.035
		c1.62-1.602,2.606-3.834,2.606-6.334c0-2.49-0.986-4.742-2.606-6.354H76.517z"/>
</g>
</svg>
