<?xml version="1.0" encoding="utf-8"?>
<!-- Generator: Adobe Illustrator 16.0.0, SVG Export Plug-In . SVG Version: 6.00 Build 0)  -->
<!DOCTYPE svg PUBLIC "-//W3C//DTD SVG 1.1//EN" "http://www.w3.org/Graphics/SVG/1.1/DTD/svg11.dtd">
<svg version="1.1" id="Calque_1" xmlns="http://www.w3.org/2000/svg" xmlns:xlink="http://www.w3.org/1999/xlink" x="0px" y="0px"
	 width="300px" height="300px" viewBox="-90 -21.5 300 300" enable-background="new -90 -21.5 300 300" xml:space="preserve">
<path fill="#001E2B" d="M210,263.5c0,8.284-6.716,15-15,15H-75c-8.284,0-15-6.716-15-15v-270c0-8.284,6.716-15,15-15h270
	c8.284,0,15,6.716,15,15V263.5z"/>
<path fill="#00ED64" d="M82.322,28.55C71.537,15.795,62.248,2.84,60.351,0.149c-0.2-0.199-0.5-0.199-0.699,0
	C57.754,2.84,48.466,15.795,37.68,28.55c-92.582,117.688,14.582,197.111,14.582,197.111l0.899,0.597
	c0.799,12.258,2.796,29.896,2.796,29.896h3.995h3.995c0,0,1.997-17.539,2.796-29.896l0.899-0.697
	C67.741,225.561,174.904,146.238,82.322,28.55z M59.951,223.867c0,0-4.793-4.086-6.092-6.18v-0.199l5.792-128.151
	c0-0.398,0.599-0.398,0.599,0l5.792,128.151v0.199C64.745,219.781,59.951,223.867,59.951,223.867z"/>
</svg>
