<?xml version="1.0" encoding="utf-8"?>
<!-- Generator: Adobe Illustrator 16.0.0, SVG Export Plug-In . SVG Version: 6.00 Build 0)  -->
<!DOCTYPE svg PUBLIC "-//W3C//DTD SVG 1.1//EN" "http://www.w3.org/Graphics/SVG/1.1/DTD/svg11.dtd">
<svg version="1.1" id="Layer_1" xmlns="http://www.w3.org/2000/svg" xmlns:xlink="http://www.w3.org/1999/xlink" x="0px" y="0px"
	 width="239.49px" height="239.49px" viewBox="0 0 239.49 239.49" enable-background="new 0 0 239.49 239.49" xml:space="preserve">
<rect x="0.001" fill="#FFFFFF" width="239.487" height="239.49"/>
<path fill-rule="evenodd" clip-rule="evenodd" fill="#5D87A1" d="M155.583,66.915c-0.991,0-1.692,0.113-2.399,0.291v0.121h0.094
	c0.49,0.932,1.314,1.578,1.893,2.401c0.462,0.937,0.873,1.876,1.353,2.809c0.055-0.056,0.1-0.11,0.1-0.11
	c0.828-0.591,1.24-1.524,1.24-2.933c-0.339-0.413-0.412-0.822-0.704-1.235C156.821,67.677,156.043,67.378,155.583,66.915"/>
<g>
	<path fill="#00758F" d="M62.266,182.684h-8.12c-0.285-13.708-1.082-26.62-2.373-38.687h-0.071l-12.369,38.687h-6.189
		l-12.294-38.687h-0.072c-0.911,11.6-1.484,24.485-1.726,38.687h-7.408c0.479-17.271,1.676-33.453,3.599-48.552H25.31l11.722,35.682
		h0.073l11.793-35.682h9.636C60.641,151.83,61.889,168.016,62.266,182.684"/>
	<path fill="#00758F" d="M97.506,146.857c-3.313,17.963-7.674,30.996-13.095,39.153c-4.216,6.268-8.836,9.397-13.87,9.397
		c-1.35,0-2.998-0.408-4.962-1.218v-4.327c0.953,0.14,2.079,0.228,3.376,0.228c2.354,0,4.245-0.658,5.678-1.946
		c1.727-1.571,2.588-3.354,2.588-5.317c0-1.354-0.667-4.096-2.005-8.264l-8.92-27.706h7.978l6.403,20.727
		c1.433,4.684,2.035,7.979,1.801,9.84c3.498-9.351,5.943-19.539,7.335-30.566H97.506z"/>
	<polygon fill="#F29111" points="205.647,182.684 182.571,182.684 182.571,134.132 190.347,134.132 190.347,176.707 
		205.647,176.707 	"/>
	<path fill-rule="evenodd" clip-rule="evenodd" fill="#F29111" d="M176.538,183.844l-8.925-4.386
		c0.802-0.661,1.546-1.362,2.232-2.181c3.784-4.457,5.69-11.043,5.69-19.757c0-16.059-6.306-24.105-18.927-24.105
		c-6.176,0-11.009,2.048-14.441,6.121c-3.786,4.46-5.689,11.026-5.689,19.7c0,8.53,1.677,14.795,5.031,18.758
		c3.069,3.602,7.692,5.403,13.87,5.403c2.322,0,4.437-0.282,6.368-0.85l11.613,6.75L176.538,183.844z M147.63,172.96
		c-1.965-3.146-2.947-8.24-2.947-15.237c0-12.21,3.7-18.331,11.145-18.331c3.868,0,6.736,1.45,8.558,4.374
		c1.963,3.175,2.945,8.207,2.945,15.099c0,12.341-3.728,18.501-11.151,18.501C152.291,177.366,149.45,175.891,147.63,172.96"/>
	<path fill="#F29111" d="M133.1,169.233c0,4.11-1.518,7.483-4.544,10.13c-3.01,2.637-7.067,3.945-12.135,3.945
		c-4.748,0-9.351-1.503-13.811-4.521l2.087-4.173c3.836,1.925,7.312,2.885,10.42,2.885c2.925,0,5.216-0.658,6.862-1.938
		c1.657-1.292,2.645-3.096,2.645-5.401c0-2.867-2-5.339-5.69-7.411c-3.409-1.857-10.207-5.761-10.207-5.761
		c-3.69-2.683-5.545-5.578-5.545-10.331c0-3.928,1.381-7.112,4.129-9.521c2.766-2.44,6.326-3.634,10.681-3.634
		c4.512,0,8.602,1.186,12.307,3.578l-1.891,4.17c-3.151-1.322-6.261-2-9.332-2c-2.495,0-4.408,0.591-5.758,1.805
		c-1.342,1.178-2.174,2.713-2.174,4.601c0,2.858,2.062,5.356,5.849,7.46c3.443,1.886,10.417,5.85,10.417,5.85
		C131.198,161.642,133.1,164.518,133.1,169.233"/>
	<path fill-rule="evenodd" clip-rule="evenodd" fill="#00758F" d="M215.397,117.884c-4.685-0.122-8.318,0.337-11.366,1.648
		c-0.897,0.337-2.302,0.337-2.421,1.452c0.483,0.459,0.529,1.235,0.943,1.894c0.702,1.162,1.937,2.734,3.054,3.561
		c1.236,0.946,2.472,1.89,3.759,2.687c2.274,1.438,4.869,2.231,7.097,3.664c1.288,0.797,2.568,1.864,3.871,2.738
		c0.638,0.486,1.048,1.237,1.873,1.524v-0.17c-0.413-0.532-0.533-1.282-0.943-1.894c-0.581-0.577-1.163-1.114-1.751-1.692
		c-1.715-2.277-3.827-4.263-6.101-5.911c-1.89-1.286-5.99-3.057-6.741-5.207c0,0-0.072-0.077-0.119-0.124
		c1.284-0.123,2.814-0.61,4.048-0.951c1.985-0.532,3.803-0.409,5.863-0.942c0.924-0.217,1.866-0.536,2.815-0.823v-0.509
		c-1.071-1.066-1.818-2.474-2.934-3.466c-2.984-2.581-6.278-5.102-9.674-7.224c-1.822-1.176-4.168-1.924-6.106-2.932
		c-0.7-0.352-1.868-0.519-2.282-1.116c-1.062-1.284-1.645-2.99-2.42-4.507c-1.694-3.233-3.346-6.807-4.797-10.216
		c-1.066-2.277-1.696-4.566-3.003-6.675c-6.04-9.975-12.606-16.016-22.688-21.94c-2.183-1.231-4.75-1.763-7.512-2.406
		c-1.455-0.063-2.934-0.171-4.386-0.229c-0.947-0.413-1.895-1.529-2.718-2.061c-3.346-2.108-11.944-6.679-14.419-0.642
		c-1.574,3.817,2.352,7.564,3.704,9.501c0.999,1.347,2.284,2.873,2.984,4.398c0.412,0.997,0.534,2.06,0.948,3.115
		c0.918,2.58,1.815,5.453,3.026,7.853c0.654,1.236,1.355,2.522,2.181,3.633c0.463,0.657,1.285,0.945,1.476,2.002
		c-0.816,1.174-0.896,2.931-1.354,4.398c-2.106,6.629-1.284,14.832,1.697,19.703c0.944,1.466,3.176,4.69,6.156,3.465
		c2.642-1.053,2.061-4.397,2.811-7.329c0.192-0.707,0.074-1.176,0.411-1.649v0.123c0.823,1.633,1.649,3.218,2.399,4.871
		c1.826,2.87,4.993,5.864,7.637,7.848c1.402,1.071,2.518,2.887,4.288,3.517v-0.17h-0.12c-0.365-0.533-0.874-0.75-1.358-1.161
		c-1.041-1.068-2.228-2.353-3.055-3.541c-2.445-3.27-4.631-6.906-6.566-10.663c-0.922-1.821-1.743-3.819-2.521-5.636
		c-0.337-0.7-0.337-1.757-0.922-2.107c-0.897,1.286-2.178,2.402-2.834,3.983c-1.115,2.522-1.209,5.637-1.624,8.861
		c-0.241,0.063-0.12,0-0.241,0.121c-1.869-0.473-2.519-2.411-3.224-4.042c-1.77-4.173-2.063-10.862-0.533-15.673
		c0.41-1.222,2.184-5.1,1.479-6.264c-0.365-1.119-1.527-1.767-2.182-2.643c-0.75-1.115-1.577-2.518-2.106-3.756
		c-1.406-3.283-2.112-6.919-3.635-10.203c-0.704-1.529-1.942-3.117-2.933-4.52c-1.117-1.585-2.353-2.697-3.225-4.568
		c-0.289-0.652-0.702-1.709-0.244-2.411c0.121-0.47,0.366-0.644,0.826-0.765c0.747-0.643,2.932,0.18,3.681,0.532
		c2.184,0.873,4.001,1.698,5.817,2.932c0.825,0.583,1.696,1.697,2.763,1.993h1.237c1.865,0.406,3.975,0.116,5.746,0.649
		c3.1,0.994,5.91,2.46,8.432,4.046c7.681,4.862,14.03,11.785,18.295,20.058c0.704,1.343,0.997,2.581,1.651,3.983
		c1.236,2.877,2.764,5.809,3.992,8.621c1.216,2.761,2.406,5.569,4.152,7.863c0.896,1.235,4.411,1.876,5.985,2.52
		c1.185,0.532,3.006,0.993,4.048,1.646c2.007,1.222,3.996,2.629,5.864,3.989C212.294,115.242,215.228,116.693,215.397,117.884"/>
	<path fill="#F29111" d="M220.986,182.68h1.221v-5.959h-1.822l-1.494,4.054l-1.604-4.054h-1.766v5.959h1.142v-4.542h0.079
		l1.689,4.542h0.869l1.687-4.542V182.68z M211.197,182.68h1.28v-4.949h1.685v-1.01h-4.707v1.01h1.742V182.68z"/>
</g>
</svg>
