<?xml version="1.0" encoding="utf-8"?>
<!-- Generator: Adobe Illustrator 16.0.0, SVG Export Plug-In . SVG Version: 6.00 Build 0)  -->
<!DOCTYPE svg PUBLIC "-//W3C//DTD SVG 1.1//EN" "http://www.w3.org/Graphics/SVG/1.1/DTD/svg11.dtd">
<svg version="1.1" id="Calque_1" xmlns="http://www.w3.org/2000/svg" xmlns:xlink="http://www.w3.org/1999/xlink" x="0px" y="0px"
	 width="288px" height="288px" viewBox="0 0 288 288" enable-background="new 0 0 288 288" xml:space="preserve">
<g>
	<defs>
		<rect id="SVGID_1_" x="-6.026" width="300.053" height="288"/>
	</defs>
	<clipPath id="SVGID_2_">
		<use xlink:href="#SVGID_1_"  overflow="visible"/>
	</clipPath>
	<path clip-path="url(#SVGID_2_)" fill="#FF4438" d="M288,272c0,8.837-7.163,16-16,16H16c-8.837,0-16-7.163-16-16V16
		C0,7.164,7.163,0,16,0h256c8.837,0,16,7.164,16,16V272z"/>
	<path clip-path="url(#SVGID_2_)" fill="#FFFFFF" d="M213.644,151.448c-10.795,13.602-22.452,29.146-45.769,29.146
		c-20.827,0-28.586-18.37-29.132-33.293c4.563,9.648,13.484,17.463,27.404,17.101c26.771-0.862,45.121-25.043,45.121-47.064
		c0-26.339-19.646-45.338-53.757-45.338c-24.396,0-54.621,9.284-74.483,23.964c-0.216,15.113,8.204,34.759,11.227,32.6
		c17.219-12.38,30.873-20.35,44.116-24.346c-19.604,21.861-66.639,72.622-72.398,81.558C66.621,193.979,76.768,216,81.734,216
		c1.511,0,2.806-0.863,4.318-2.374c14.18-15.934,25.739-30.219,36.021-43.986c1.444,20.179,11.367,44.849,39.109,44.849
		c24.828,0,49.439-17.919,60.666-58.291C223.143,151.232,217.098,147.347,213.644,151.448 M185.362,118.849
		c0,12.738-12.522,18.999-23.965,18.999c-6.115,0-10.814-1.607-14.529-3.693c6.837-10.353,13.604-20.969,20.875-32.333
		C180.563,103.992,185.362,111.119,185.362,118.849"/>
</g>
</svg>
